<svg width="107" height="123" viewBox="0 0 107 123" fill="none" xmlns="http://www.w3.org/2000/svg">
<g clip-path="url(#clip0_29_3)">
<path fill-rule="evenodd" clip-rule="evenodd" d="M39.62 64.58C38.16 64.58 36.98 63.17 36.98 61.44C36.98 59.7 38.16 58.3 39.62 58.3H74.51C75.97 58.3 77.15 59.71 77.15 61.44C77.15 63.18 75.97 64.58 74.51 64.58H39.62ZM46.77 116.58C48.51 116.58 49.92 117.99 49.92 119.73C49.92 121.47 48.51 122.88 46.77 122.88H7.33C5.31 122.88 3.48 122.06 2.15 120.73C0.82 119.4 0 117.57 0 115.55V7.33C0 5.31 0.82 3.48 2.15 2.15C3.48 0.82 5.31 0 7.33 0H97.35C99.37 0 101.2 0.83 102.53 2.15C103.86 3.48 104.68 5.31 104.68 7.33V57.47C104.68 59.21 103.27 60.62 101.53 60.62C99.79 60.62 98.38 59.21 98.38 57.47V7.33C98.38 7.05 98.26 6.79 98.07 6.61C97.88 6.42 97.63 6.3 97.35 6.3H7.33C7.05 6.3 6.79 6.42 6.6 6.6C6.42 6.8 6.3 7.05 6.3 7.33V115.54C6.3 115.82 6.42 116.08 6.6 116.26C6.79 116.45 7.05 116.57 7.33 116.57H46.77V116.58ZM98.7 74.34C98.19 73.85 97.6 73.62 96.92 73.63C96.24 73.64 95.66 73.9 95.18 74.41L91.27 78.48L102.24 89.07L106.19 84.96C106.66 84.48 106.86 83.86 106.85 83.18C106.84 82.51 106.6 81.9 106.12 81.44L98.7 74.34ZM78.21 114.01C76.76 114.47 75.32 114.95 73.88 115.42C72.43 115.9 70.99 116.39 69.55 116.87C66.14 117.99 64.23 118.61 63.83 118.72C63.44 118.84 63.67 117.24 64.53 113.91L67.24 103.46L87.79 82.08L98.75 92.63L78.21 114.01ZM39.62 86.95C38.16 86.95 36.97 85.52 36.97 83.76C36.97 82 38.16 80.57 39.62 80.57H56.81C58.27 80.57 59.46 82 59.46 83.76C59.46 85.52 58.27 86.95 56.81 86.95H39.62ZM39.62 42.26C38.16 42.26 36.98 40.85 36.98 39.12C36.98 37.38 38.16 35.98 39.62 35.98H74.51C75.97 35.98 77.15 37.39 77.15 39.12C77.15 40.86 75.97 42.26 74.51 42.26H39.62ZM24.48 79.46C26.54 79.46 28.2 81.13 28.2 83.18C28.2 85.24 26.53 86.9 24.48 86.9C22.42 86.9 20.76 85.23 20.76 83.18C20.76 81.13 22.43 79.46 24.48 79.46ZM24.48 57.44C26.54 57.44 28.2 59.11 28.2 61.16C28.2 63.22 26.53 64.88 24.48 64.88C22.42 64.88 20.76 63.21 20.76 61.16C20.76 59.11 22.43 57.44 24.48 57.44ZM24.48 35.42C26.54 35.42 28.2 37.09 28.2 39.14C28.2 41.2 26.53 42.86 24.48 42.86C22.42 42.86 20.76 41.19 20.76 39.14C20.76 37.08 22.43 35.42 24.48 35.42Z" fill="url(#paint0_linear_29_3)"/>
</g>
<defs>
<linearGradient id="paint0_linear_29_3" x1="53.4252" y1="0" x2="53.4252" y2="122.88" gradientUnits="userSpaceOnUse">
<stop stop-color="#90F53D"/>
<stop offset="1" stop-color="#33A0FF"/>
</linearGradient>
<clipPath id="clip0_29_3">
<rect width="106.86" height="122.88" fill="white"/>
</clipPath>
</defs>
</svg>
